# xmcd CD database file
#
# Track frame offsets:
#	150
#	12083
#	41192
#	67199
#	93202
#	122497
#	155717
#
# Disc length: 2204 seconds
#
# Revision: 0
# Processed by: cddbd v1.5.2PL0 Copyright (c) Steve Scherf et al.
# Submitted via: CDex 1.70beta2
#
DISCID=57089a07
DTITLE=高瀬アキ - 井野信義 - 天衣無縫
DYEAR=1986
DGENRE=Jazz
TTITLE0=百花繚乱
TTITLE1=或る宴
TTITLE2=Song for Che
TTITLE3=わが心のﾙﾈｯｻﾝｽ
TTITLE4=天邪鬼
TTITLE5=美は乱調にあり
TTITLE6=埴生の宿
EXTD=YEAR: 1986
EXTT0=
EXTT1=
EXTT2=
EXTT3=
EXTT4=
EXTT5=
EXTT6=
PLAYORDER=
